<?xml version="1.0" encoding="utf-8"?>
<!-- Generator: Adobe Illustrator 16.0.4, SVG Export Plug-In . SVG Version: 6.00 Build 0)  -->
<!DOCTYPE svg PUBLIC "-//W3C//DTD SVG 1.1//EN" "http://www.w3.org/Graphics/SVG/1.1/DTD/svg11.dtd">
<svg version="1.1" id="Layer_1" xmlns="http://www.w3.org/2000/svg" xmlns:xlink="http://www.w3.org/1999/xlink" x="0px" y="0px"
	 width="651.97px" height="722.83px" viewBox="0 0 651.97 722.83" enable-background="new 0 0 651.97 722.83" xml:space="preserve">
<g>
	
		<rect x="2.53" y="1.42" fill="#FFFFFF" stroke="#FFFFFF" stroke-width="1.06" stroke-linecap="round" stroke-linejoin="round" stroke-miterlimit="10" width="648" height="127.69"/>
	<g>
		<defs>
			<rect id="SVGID_1_" x="2.53" y="129.111" width="648" height="110.409"/>
		</defs>
		<clipPath id="SVGID_2_">
			<use xlink:href="#SVGID_1_"  overflow="visible"/>
		</clipPath>
		
			<rect x="2.53" y="129.111" clip-path="url(#SVGID_2_)" fill="#FFFFFF" stroke="#FFFFFF" stroke-width="1.06" stroke-linecap="round" stroke-linejoin="round" stroke-miterlimit="10" width="648" height="110.409"/>
	</g>
	<g>
		<defs>
			<rect id="SVGID_3_" x="2.53" y="239.52" width="648" height="110.41"/>
		</defs>
		<clipPath id="SVGID_4_">
			<use xlink:href="#SVGID_3_"  overflow="visible"/>
		</clipPath>
		
			<rect x="2.53" y="239.52" clip-path="url(#SVGID_4_)" fill="#FFFFFF" stroke="#FFFFFF" stroke-width="1.06" stroke-linecap="round" stroke-linejoin="round" stroke-miterlimit="10" width="648" height="110.41"/>
	</g>
	<g>
		<defs>
			<rect id="SVGID_5_" x="2.53" y="349.93" width="648" height="110.41"/>
		</defs>
		<clipPath id="SVGID_6_">
			<use xlink:href="#SVGID_5_"  overflow="visible"/>
		</clipPath>
		
			<rect x="2.53" y="349.93" clip-path="url(#SVGID_6_)" fill="#FFFFFF" stroke="#FFFFFF" stroke-width="1.06" stroke-linecap="round" stroke-linejoin="round" stroke-miterlimit="10" width="648" height="110.41"/>
	</g>
	
		<rect x="2.53" y="460.34" fill="#FFFFFF" stroke="#FFFFFF" stroke-width="1.06" stroke-linecap="round" stroke-linejoin="round" stroke-miterlimit="10" width="648" height="110.41"/>
	
		<rect x="2.53" y="570.75" fill="#FFFFFF" stroke="#FFFFFF" stroke-width="1.06" stroke-linecap="round" stroke-linejoin="round" stroke-miterlimit="10" width="648" height="150.67"/>
	<g>
		<defs>
			<rect id="SVGID_7_" x="84.79" y="15.821" width="551.34" height="101.88"/>
		</defs>
		<clipPath id="SVGID_8_">
			<use xlink:href="#SVGID_7_"  overflow="visible"/>
		</clipPath>
		<rect x="84.79" y="15.821" clip-path="url(#SVGID_8_)" fill="#FFFFFF" width="551.34" height="101.88"/>
		
			<path clip-path="url(#SVGID_8_)" fill="none" stroke="#FCFCFD" stroke-width="1.06" stroke-linejoin="round" stroke-miterlimit="10" d="
			M84.79,107.041h551.34 M84.79,72.411h551.34 M84.79,37.77h551.34 M168.22,117.701V15.821 M284.96,117.701V15.821 M400.431,117.701
			V15.821 M515.271,117.701V15.821 M631.37,117.701V15.821"/>
		
			<path clip-path="url(#SVGID_8_)" fill="none" stroke="#EBEBEC" stroke-width="0.43" stroke-linejoin="round" stroke-miterlimit="10" d="
			M84.79,89.72h551.34 M84.79,55.09h551.34 M84.79,20.451h551.34 M109.85,117.701V15.821 M226.59,117.701V15.821 M343.33,117.701
			V15.821 M457.53,117.701V15.821 M573,117.701V15.821"/>
		
			<polyline clip-path="url(#SVGID_8_)" fill="none" stroke="#13110C" stroke-width="1.06" stroke-linejoin="round" stroke-miterlimit="1" points="
			109.85,54.151 111.12,55.9 112.39,40.701 113.65,39.611 114.92,32.56 116.19,37.531 117.46,52.541 118.73,50.791 120,53.89 
			121.271,56.081 122.54,56.991 123.811,55.81 125.07,58.111 126.34,58.581 127.61,51.331 128.88,45.071 130.15,45.64 131.42,54.38 
			132.69,57 133.96,52.9 135.23,49.39 136.5,35.1 137.76,37.821 139.03,41.611 140.3,43.15 141.57,46.64 142.84,47.97 144.11,50.69 
			145.38,52.92 146.65,58.65 147.92,55.71 149.181,40.951 150.45,44.1 151.72,46.18 152.99,49.4 154.26,44.76 155.53,46.47 
			156.8,47.831 158.07,47.6 159.34,44.02 160.601,38.291 161.87,44.38 163.141,40.72 164.41,36.85 165.681,37.59 166.95,44.741 
			168.221,39.25 169.49,37.67 170.761,32.4 172.021,43.34 173.29,44.76 174.561,50.411 175.83,45.031 177.101,45.59 178.37,48.98 
			179.641,56.39 180.91,55.39 182.181,48.01 183.44,45.661 184.71,52.041 185.98,64.241 187.25,65.94 188.521,36.991 189.79,41.48 
			191.061,31.93 192.33,45.031 193.601,51.18 194.87,44.19 196.13,37.55 197.4,35.51 198.67,43.51 199.94,52.69 201.21,65.51 
			202.48,65.6 203.75,52.31 205.021,50.71 206.29,45.05 207.551,49.571 208.82,62.05 210.091,69.27 211.36,64.34 212.63,69.75 
			213.9,73.64 215.17,72.06 216.44,73.5 217.71,66.97 218.971,61.451 220.24,58.93 221.511,62.201 222.78,61.781 224.051,57.871 
			225.32,48.411 226.591,58.5 227.86,64.571 229.13,69.581 230.391,70.98 231.66,71.48 232.931,68.17 234.2,73.701 235.471,82.901 
			236.74,77.571 238.01,81.34 239.28,60.67 240.55,60.651 241.82,65.09 243.08,72.201 244.35,85.581 245.62,93.76 246.89,93.1 
			248.16,71.5 249.43,72.121 250.7,69.8 251.97,75.25 253.24,83.691 254.5,67.151 255.771,72.031 257.04,76.84 258.31,89.92 
			259.58,82.491 260.85,69 262.12,78.51 263.39,72.701 264.66,77.64 265.92,92.25 267.19,82.21 268.46,91.77 269.73,86.861 
			271,86.39 272.271,60.93 273.54,59.26 274.81,65.42 276.08,66.47 277.34,74.77 278.61,78.701 279.88,78.5 281.15,55.13 
			282.42,70.621 283.69,72.441 284.96,66.941 286.23,81.96 287.5,79.6 288.76,65.291 290.03,60.56 291.3,71.821 292.57,69.3 
			293.84,77.291 295.11,87.5 296.38,83.451 297.65,78.35 298.92,80.31 300.19,85.64 301.45,99.041 302.72,94.06 303.99,90.3 
			305.26,100.13 306.53,87.871 307.8,89.161 309.07,101.76 310.34,94.55 311.61,83.491 312.87,76.661 314.14,78.911 315.41,89.791 
			316.68,110.38 317.95,107.75 319.22,109.781 320.49,82.541 321.76,79.411 323.03,77.88 324.29,77.571 325.56,81.651 326.83,75.25 
			328.101,77.71 329.37,80.731 330.641,76.34 331.91,69.59 333.181,77.281 334.45,77.441 335.71,87.01 336.98,92.491 338.25,72.201 
			339.521,70.27 340.79,79.77 342.061,73.06 343.33,79.42 344.601,65.861 345.87,58.691 347.13,58.911 348.4,69.23 349.67,72.411 
			350.94,66.97 352.21,70.5 353.48,73.38 354.75,81.47 356.021,96.541 357.29,91.731 358.561,91.64 359.82,96.67 361.09,106.14 
			362.36,103.531 363.63,92.43 364.9,91.38 366.17,91.941 367.44,97.09 368.71,92.51 369.98,93.5 371.24,101.541 372.511,98.331 
			373.78,91.02 375.05,83.18 376.32,78.451 377.59,79.21 378.86,72.821 380.13,74.39 381.4,80.491 382.66,84.691 383.931,90.621 
			385.2,72.18 386.471,87.331 387.74,85.92 389.011,89.161 390.28,90.161 391.55,83.831 392.82,86.451 394.08,88.361 395.351,89.02 
			396.62,90.401 397.891,91.52 399.16,75.941 400.431,79.46 401.7,79.871 402.97,78.88 404.24,92.52 405.5,92.071 406.771,83.59 
			408.04,89.411 409.311,97.531 410.58,95.14 411.851,89.22 413.12,92 414.391,99.911 415.66,93.76 416.931,82.93 418.19,84.8 
			419.46,71.871 420.73,74.791 422,82.581 423.271,87.14 424.54,83.84 425.811,79.68 427.08,85.98 428.351,88.02 429.61,101.14 
			430.88,113.071 432.15,93.871 433.42,94.861 434.69,90.071 435.96,82.831 437.23,97.64 438.5,86.76 439.771,91.571 441.03,95.93 
			442.3,94.31 443.57,99.25 444.84,94.611 446.11,96.8 447.38,95.59 448.65,94.06 449.92,95.571 451.19,96.63 452.45,100.05 
			453.72,100.94 454.99,102.821 456.26,105.01 457.53,96.05 458.8,97.291 460.07,88.611 461.34,84.331 462.61,86.75 463.87,87.401 
			465.141,90.651 466.41,89.701 467.681,87.73 468.95,85.23 470.22,82.781 471.49,80.96 472.761,78.201 474.03,59.13 475.3,58.98 
			476.561,64.871 477.83,69.621 479.101,66.59 480.37,71.55 481.641,62.43 482.91,66.291 484.181,64.361 485.45,64.52 
			486.721,67.411 487.98,71.01 489.25,80.041 490.521,76.02 491.79,68.581 493.061,69.34 494.33,70.88 495.601,71.15 496.87,72.31 
			498.141,74.031 499.4,69.321 500.67,49.621 501.94,50.161 503.21,49.71 504.48,59.51 505.75,63.831 507.021,61.281 508.29,64.17 
			509.561,66.93 510.82,70.31 512.091,67.13 513.36,73.52 514.63,71.831 515.9,68.47 517.17,61.46 518.44,46.321 519.71,46.31 
			520.98,58.241 522.24,69.031 523.511,80.72 524.78,66.43 526.051,56.94 527.32,56.201 528.591,61.34 529.86,59.59 531.13,59.281 
			532.4,45.741 533.671,49.55 534.931,58.81 536.2,59.43 537.471,51.22 538.74,44.781 540.011,57.401 541.28,55.451 542.551,52.611 
			543.82,49.38 545.091,48.71 546.351,48.831 547.62,56.69 548.891,46.121 550.16,51.13 551.431,51.77 552.7,55.81 553.971,50.031 
			555.24,46.621 556.511,45.871 557.771,46.18 559.04,48.27 560.311,42.571 561.58,50.831 562.851,56.63 564.12,58.581 
			565.391,54.64 566.66,51.94 567.931,48.411 569.19,44.15 570.46,49.25 571.73,40.55 573.001,53.661 574.271,59.09 575.54,39.621 
			576.811,41.89 578.081,38 579.351,33.951 580.62,32.9 581.881,28.72 583.15,27.38 584.421,38.951 585.69,33.01 586.96,24.31 
			588.23,40.77 589.5,35.76 590.771,28.56 592.04,30.71 593.301,31.17 594.57,20.5 595.841,34.48 597.11,32.93 598.38,37.65 
			599.65,38.611 600.92,36.071 602.19,29.041 603.46,35.121 604.721,37.3 605.99,37.541 607.261,48.451 608.53,46.06 609.8,45.19 
			611.07,45.1 612.34,39.97 613.61,29.68 614.88,40.81 616.141,43.371 617.41,49.911 618.681,47.51 619.95,50.35 621.22,44.191 
			622.49,47.161 623.761,48.581 625.03,50.14 626.3,52.741 627.561,52.571 628.83,40.621 630.101,33.52 631.37,43.321 632.64,42.46 
			633.91,48.201 635.181,47.23 636.45,47.55 637.72,35.64 638.99,42.85 640.25,35.81 641.521,43.1 642.79,39.161 644.06,41.821 
			645.33,40.861 646.601,49.48 647.87,41.941 649.14,44.81 650.41,52.991 650.53,52.22 		"/>
		
			<line clip-path="url(#SVGID_8_)" fill="none" stroke="#13110C" stroke-width="1.06" stroke-linejoin="round" stroke-miterlimit="10" stroke-dasharray="4.25,4.25" x1="84.79" y1="89.72" x2="636.13" y2="89.72"/>
	</g>
	<text transform="matrix(1 0 0 1 104.0083 25.4829)" fill="#13110C" font-family="'Helvetica'" font-size="14">a.</text>
	<g>
		<defs>
			<rect id="SVGID_9_" x="84.79" y="15.821" width="551.34" height="101.88"/>
		</defs>
		<clipPath id="SVGID_10_">
			<use xlink:href="#SVGID_9_"  overflow="visible"/>
		</clipPath>
		
			<rect x="84.79" y="15.821" clip-path="url(#SVGID_10_)" fill="none" stroke="#888483" stroke-width="1.06" stroke-linecap="round" stroke-linejoin="round" stroke-miterlimit="10" width="551.34" height="101.88"/>
	</g>
	<g>
		<defs>
			<rect id="SVGID_11_" x="84.79" y="126.23" width="551.34" height="101.881"/>
		</defs>
		<clipPath id="SVGID_12_">
			<use xlink:href="#SVGID_11_"  overflow="visible"/>
		</clipPath>
		<rect x="84.79" y="126.23" clip-path="url(#SVGID_12_)" fill="#FFFFFF" width="551.34" height="101.881"/>
		
			<path clip-path="url(#SVGID_12_)" fill="none" stroke="#FCFCFD" stroke-width="1.06" stroke-linejoin="round" stroke-miterlimit="10" d="
			M84.79,209.23h551.34 M84.79,180.741h551.34 M84.79,152.241h551.34 M168.22,228.111V126.23 M284.96,228.111V126.23
			 M400.431,228.111V126.23 M515.271,228.111V126.23 M631.37,228.111V126.23"/>
		
			<path clip-path="url(#SVGID_12_)" fill="none" stroke="#EBEBEC" stroke-width="0.43" stroke-linejoin="round" stroke-miterlimit="10" d="
			M84.79,223.48h551.34 M84.79,194.98h551.34 M84.79,166.491h551.34 M84.79,137.991h551.34 M109.85,228.111V126.23 M226.59,228.111
			V126.23 M343.33,228.111V126.23 M457.53,228.111V126.23 M573,228.111V126.23"/>
		
			<path clip-path="url(#SVGID_12_)" fill="none" stroke="#13110C" stroke-width="1.06" stroke-linejoin="round" stroke-miterlimit="10" d="
			M109.85,223.48v-11.97 M111.12,223.48v-7.689 M112.39,223.48v-0.85 M113.65,223.48v-0.279 M114.92,223.48v-7.689 M116.19,223.48
			v-0.85 M117.46,223.48v-23.079 M118.73,223.48v-4.56 M120,223.48v-0.279 M121.271,223.48v-12.819 M122.54,223.48v-9.119
			 M123.81,223.48L123.81,223.48 M125.07,223.48L125.07,223.48 M126.34,223.48v-0.569 M127.61,223.48v-0.279 M128.88,223.48v-0.279
			 M130.15,223.48L130.15,223.48 M131.42,223.48v-29.35 M132.69,223.48v-0.279 M133.96,223.48L133.96,223.48 M135.23,223.48
			L135.23,223.48 M136.5,223.48v-0.85 M137.76,223.48v-2.279 M139.03,223.48L139.03,223.48 M140.3,223.48L140.3,223.48
			 M141.57,223.48v-1.14 M142.84,223.48v-0.279 M144.11,223.48v-2.279 M145.38,223.48v-1.42 M146.65,223.48v-2.85 M147.92,223.48
			v-0.279 M149.18,223.48v-5.409 M150.45,223.48v-2.85 M151.72,223.48v-0.279 M152.99,223.48v-7.689 M154.26,223.48v-0.279
			 M155.53,223.48v-12.25 M156.8,223.48v-8.55 M158.07,223.48L158.07,223.48 M159.34,223.48v-0.279 M160.6,223.48L160.6,223.48
			 M161.87,223.48L161.87,223.48 M163.14,223.48L163.14,223.48 M164.41,223.48v-5.409 M165.68,223.48v-8.26 M166.95,223.48v-17.1
			 M168.22,223.48L168.22,223.48 M169.49,223.48v-2.56 M170.76,223.48L170.76,223.48 M172.021,223.48v-0.85 M173.29,223.48v-0.85
			 M174.56,223.48v-11.97 M175.83,223.48L175.83,223.48 M177.1,223.48v-0.279 M178.37,223.48v-2.279 M179.64,223.48v-1.42
			 M180.91,223.48L180.91,223.48 M182.18,223.48v-17.949 M183.44,223.48v-2.279 M184.71,223.48v-13.109 M185.98,223.48v-0.569
			 M187.25,223.48v-0.85 M188.521,223.48v-0.85 M189.79,223.48L189.79,223.48 M191.06,223.48L191.06,223.48 M192.33,223.48v-0.279
			 M193.6,223.48L193.6,223.48 M194.87,223.48v-1.71 M196.13,223.48v-0.279 M197.4,223.48L197.4,223.48 M198.67,223.48v-0.85
			 M199.94,223.48v-0.569 M201.21,223.48v-0.279 M202.48,223.48v-0.569 M203.75,223.48v-2.279 M205.021,223.48v-1.989
			 M206.29,223.48v-0.279 M207.55,223.48L207.55,223.48 M208.82,223.48v-1.14 M210.09,223.48v-1.14 M211.36,223.48L211.36,223.48
			 M212.63,223.48v-0.85 M213.9,223.48v-0.279 M215.17,223.48L215.17,223.48 M216.44,223.48v-0.279 M217.71,223.48V203.25
			 M218.97,223.48v-64.689 M220.24,223.48v-1.42 M221.51,223.48L221.51,223.48 M222.78,223.48v-1.14 M224.05,223.48v-0.279
			 M225.32,223.48v-4.27 M226.59,223.48v-0.279 M227.86,223.48v-4.56 M229.13,223.48v-10.829 M230.39,223.48L230.39,223.48
			 M231.66,223.48v-0.85 M232.93,223.48L232.93,223.48 M234.2,223.48L234.2,223.48 M235.47,223.48v-0.279 M236.74,223.48
			L236.74,223.48 M238.01,223.48L238.01,223.48 M239.28,223.48v-4.56 M240.55,223.48v-35.34 M241.82,223.48v-5.409 M243.08,223.48
			v-7.119 M244.35,223.48v-1.989 M245.62,223.48v-2.56 M246.89,223.48v-16.239 M248.16,223.48v-10.829 M249.43,223.48v-5.13
			 M250.7,223.48L250.7,223.48 M251.97,223.48L251.97,223.48 M253.24,223.48v-0.279 M254.5,223.48v-0.279 M255.771,223.48v-0.279
			 M257.04,223.48v-1.42 M258.311,223.48v-0.569 M259.58,223.48v-4.27 M260.85,223.48L260.85,223.48 M262.12,223.48v-0.569
			 M263.39,223.48v-0.279 M264.66,223.48v-9.689 M265.92,223.48v-0.569 M267.19,223.48v-2.279 M268.46,223.48L268.46,223.48
			 M269.73,223.48v-0.279 M271,223.48v-0.569 M272.271,223.48v-0.569 M273.54,223.48v-0.569 M274.811,223.48L274.811,223.48
			 M276.08,223.48v-0.279 M277.34,223.48L277.34,223.48 M278.61,223.48L278.61,223.48 M279.88,223.48v-0.569 M281.15,223.48v-3.13
			 M282.42,223.48L282.42,223.48 M283.69,223.48v-0.279 M284.96,223.48v-0.85 M286.23,223.48L286.23,223.48 M287.5,223.48v-0.569
			 M288.76,223.48v-20.8 M290.03,223.48v-12.54 M291.3,223.48L291.3,223.48 M292.57,223.48v-25.93 M293.84,223.48v-0.279
			 M295.11,223.48L295.11,223.48 M296.38,223.48v-10.26 M297.65,223.48v-1.42 M298.92,223.48v-6.55 M300.19,223.48v-0.569
			 M301.45,223.48L301.45,223.48 M302.72,223.48v-0.279 M303.99,223.48v-1.42 M305.26,223.48L305.26,223.48 M306.53,223.48v-3.699
			 M307.8,223.48v-0.85 M309.07,223.48L309.07,223.48 M310.34,223.48v-1.14 M311.61,223.48v-7.409 M312.87,223.48v-1.14
			 M314.14,223.48v-9.399 M315.41,223.48v-3.42 M316.68,223.48L316.68,223.48 M317.95,223.48L317.95,223.48 M319.22,223.48
			L319.22,223.48 M320.49,223.48v-26.5 M321.76,223.48v-7.409 M323.03,223.48L323.03,223.48 M324.29,223.48v-13.39 M325.56,223.48
			v-0.279 M326.83,223.48v-4.27 M328.101,223.48V187 M329.37,223.48v-25.649 M330.641,223.48v-19.949 M331.91,223.48v-12.54
			 M333.181,223.48v-0.569 M334.45,223.48v-0.279 M335.71,223.48v-0.569 M336.98,223.48L336.98,223.48 M338.25,223.48v-37.899
			 M339.521,223.48v-73.81 M340.79,223.48v-1.989 M342.061,223.48v-23.369 M343.33,223.48L343.33,223.48 M344.601,223.48v-9.689
			 M345.87,223.48L345.87,223.48 M347.13,223.48L347.13,223.48 M348.4,223.48L348.4,223.48 M349.67,223.48L349.67,223.48
			 M350.94,223.48v-9.97 M352.21,223.48v-0.279 M353.48,223.48L353.48,223.48 M354.75,223.48v-0.569 M356.021,223.48L356.021,223.48
			 M357.29,223.48v-2.56 M358.561,223.48L358.561,223.48 M359.82,223.48v-0.279 M361.09,223.48L361.09,223.48 M362.36,223.48
			L362.36,223.48"/>
		
			<path clip-path="url(#SVGID_12_)" fill="none" stroke="#13110C" stroke-width="1.06" stroke-linejoin="round" stroke-miterlimit="10" d="
			M363.63,223.48L363.63,223.48 M364.9,223.48L364.9,223.48 M366.17,223.48L366.17,223.48 M367.44,223.48L367.44,223.48
			 M368.71,223.48L368.71,223.48 M369.98,223.48L369.98,223.48 M371.24,223.48L371.24,223.48 M372.511,223.48L372.511,223.48
			 M373.78,223.48L373.78,223.48 M375.05,223.48v-12.25 M376.32,223.48v-8.55 M377.59,223.48v-24.22 M378.86,223.48v-30.779
			 M380.13,223.48v-32.199 M381.4,223.48v-4.56 M382.66,223.48v-0.85 M383.931,223.48v-2.85 M385.2,223.48v-7.689 M386.471,223.48
			v-3.699 M387.74,223.48v-23.079 M389.011,223.48v-1.71 M390.28,223.48v-0.279 M391.55,223.48v-5.699 M392.82,223.48v-0.569
			 M394.08,223.48v-3.699 M395.351,223.48v-6.27 M396.62,223.48v-0.569 M397.891,223.48V215.5 M399.16,223.48v-3.13 M400.431,223.48
			v-0.279 M401.7,223.48L401.7,223.48 M402.971,223.48L402.971,223.48 M404.24,223.48v-0.279 M405.5,223.48L405.5,223.48
			 M406.771,223.48v-0.279 M408.04,223.48L408.04,223.48 M409.311,223.48L409.311,223.48 M410.58,223.48L410.58,223.48
			 M411.851,223.48v-0.85 M413.12,223.48L413.12,223.48 M414.391,223.48L414.391,223.48 M415.66,223.48L415.66,223.48
			 M416.931,223.48v-0.279 M418.19,223.48L418.19,223.48 M419.46,223.48v-0.569 M420.73,223.48v-0.279 M422,223.48L422,223.48
			 M423.271,223.48L423.271,223.48 M424.54,223.48v-1.42 M425.811,223.48v-4.84 M427.08,223.48v-6.55 M428.351,223.48v-3.42
			 M429.61,223.48L429.61,223.48 M430.88,223.48v-1.989 M432.15,223.48v-1.42 M433.42,223.48v-1.989 M434.69,223.48L434.69,223.48
			 M435.96,223.48v-0.279 M437.23,223.48v-10.26 M438.5,223.48v-9.97 M439.771,223.48v-6.27 M441.03,223.48v-0.85 M442.3,223.48
			v-7.409 M443.57,223.48v-1.989 M444.84,223.48L444.84,223.48 M446.11,223.48L446.11,223.48 M447.38,223.48L447.38,223.48
			 M448.65,223.48v-1.14 M449.92,223.48v-0.569 M451.19,223.48v-2.85 M452.45,223.48v-0.279 M453.721,223.48v-0.279 M454.99,223.48
			v-0.279 M456.261,223.48L456.261,223.48 M457.53,223.48L457.53,223.48 M458.8,223.48L458.8,223.48 M460.07,223.48L460.07,223.48
			 M461.34,223.48v-0.279 M462.61,223.48v-0.279 M463.87,223.48L463.87,223.48 M465.141,223.48v-0.85 M466.41,223.48v-3.42
			 M467.681,223.48v-0.279 M468.95,223.48v-1.42 M470.221,223.48v-0.279 M471.49,223.48L471.49,223.48 M472.761,223.48v-1.14
			 M474.03,223.48v-57.56 M475.3,223.48v-33.06 M476.561,223.48v-92.619 M477.83,223.48v-23.079 M479.101,223.48v-6.84
			 M480.37,223.48v-0.279 M481.641,223.48v-0.85 M482.91,223.48v-1.71 M484.181,223.48v-26.22 M485.45,223.48v-0.279
			 M486.721,223.48v-1.14 M487.98,223.48L487.98,223.48 M489.25,223.48v-4.84 M490.521,223.48v-5.409 M491.79,223.48v-0.279
			 M493.061,223.48v-1.42 M494.33,223.48L494.33,223.48 M495.601,223.48v-2.56 M496.87,223.48v-1.14 M498.141,223.48v-23.939
			 M499.4,223.48L499.4,223.48 M500.67,223.48L500.67,223.48 M501.94,223.48L501.94,223.48 M503.21,223.48L503.21,223.48
			 M504.48,223.48V217.5 M505.75,223.48v-0.279 M507.021,223.48v-3.42 M508.29,223.48v-1.42 M509.561,223.48v-1.42 M510.82,223.48
			L510.82,223.48 M512.09,223.48v-0.569 M513.36,223.48v-2.56 M514.63,223.48L514.63,223.48 M515.9,223.48L515.9,223.48
			 M517.17,223.48v-44.17 M518.44,223.48L518.44,223.48 M519.71,223.48L519.71,223.48 M520.98,223.48L520.98,223.48 M522.24,223.48
			v-3.989 M523.511,223.48v-12.54 M524.78,223.48v-2.279 M526.05,223.48L526.05,223.48 M527.32,223.48L527.32,223.48 M528.59,223.48
			v-11.399 M529.86,223.48v-1.42 M531.13,223.48v-1.989 M532.4,223.48v-0.85 M533.67,223.48V209.8 M534.931,223.48v-0.85
			 M536.2,223.48L536.2,223.48 M537.47,223.48L537.47,223.48 M538.74,223.48L538.74,223.48 M540.011,223.48L540.011,223.48
			 M541.28,223.48L541.28,223.48 M542.55,223.48L542.55,223.48 M543.82,223.48L543.82,223.48 M545.09,223.48L545.09,223.48
			 M546.351,223.48L546.351,223.48 M547.62,223.48v-0.279 M548.891,223.48v-6.27 M550.16,223.48L550.16,223.48 M551.431,223.48
			v-3.13 M552.7,223.48v-2.85 M553.97,223.48v-0.85 M555.24,223.48v-0.85 M556.511,223.48L556.511,223.48 M557.771,223.48
			L557.771,223.48 M559.04,223.48L559.04,223.48 M560.311,223.48v-1.14 M561.58,223.48v-8.829 M562.851,223.48v-17.949
			 M564.12,223.48L564.12,223.48 M565.391,223.48L565.391,223.48 M566.66,223.48L566.66,223.48 M567.931,223.48L567.931,223.48
			 M569.19,223.48v-5.13 M570.46,223.48L570.46,223.48 M571.73,223.48L571.73,223.48 M573,223.48L573,223.48 M574.271,223.48v-5.13
			 M575.54,223.48v-0.279 M576.811,223.48v-0.569 M578.08,223.48L578.08,223.48 M579.351,223.48L579.351,223.48 M580.62,223.48
			L580.62,223.48 M581.88,223.48L581.88,223.48 M583.15,223.48L583.15,223.48 M584.42,223.48L584.42,223.48 M585.69,223.48
			L585.69,223.48 M586.96,223.48L586.96,223.48 M588.23,223.48L588.23,223.48 M589.5,223.48L589.5,223.48 M590.771,223.48
			L590.771,223.48 M592.04,223.48L592.04,223.48 M593.3,223.48L593.3,223.48 M594.57,223.48L594.57,223.48 M595.841,223.48
			L595.841,223.48 M597.11,223.48L597.11,223.48 M598.38,223.48v-0.279 M599.65,223.48L599.65,223.48 M600.92,223.48v-21.939
			 M602.19,223.48v-5.409 M603.46,223.48v-0.85 M604.72,223.48v-3.13 M605.99,223.48L605.99,223.48 M607.261,223.48v-41.6
			 M608.53,223.48v-13.39 M609.8,223.48v-27.359 M611.07,223.48L611.07,223.48 M612.341,223.48v-15.67 M613.61,223.48v-2.279
			 M614.88,223.48L614.88,223.48 M616.141,223.48L616.141,223.48"/>
		
			<path clip-path="url(#SVGID_12_)" fill="none" stroke="#13110C" stroke-width="1.06" stroke-linejoin="round" stroke-miterlimit="10" d="
			M617.41,223.48L617.41,223.48 M618.681,223.48L618.681,223.48 M619.95,223.48v-3.13 M621.22,223.48v-2.85 M622.49,223.48V217.5
			 M623.761,223.48L623.761,223.48 M625.03,223.48v-1.989 M626.3,223.48v-0.569 M627.561,223.48v-0.279 M628.83,223.48
			L628.83,223.48 M630.101,223.48v-1.42 M631.37,223.48L631.37,223.48 M632.641,223.48v-1.989 M633.91,223.48L633.91,223.48
			 M635.181,223.48L635.181,223.48 M636.45,223.48v-2.85 M637.72,223.48v-3.699 M638.99,223.48v-1.14 M640.25,223.48v-7.689"/>
	</g>
	<text transform="matrix(1 0 0 1 104.0083 139.4438)" fill="#13110C" font-family="'Helvetica'" font-size="14">b.</text>
	<g>
		<defs>
			<rect id="SVGID_13_" x="84.79" y="126.23" width="551.34" height="101.881"/>
		</defs>
		<clipPath id="SVGID_14_">
			<use xlink:href="#SVGID_13_"  overflow="visible"/>
		</clipPath>
		
			<rect x="84.79" y="126.23" clip-path="url(#SVGID_14_)" fill="none" stroke="#888483" stroke-width="1.06" stroke-linecap="round" stroke-linejoin="round" stroke-miterlimit="10" width="551.34" height="101.881"/>
	</g>
	<g>
		<defs>
			<rect id="SVGID_15_" x="84.79" y="236.64" width="551.34" height="101.891"/>
		</defs>
		<clipPath id="SVGID_16_">
			<use xlink:href="#SVGID_15_"  overflow="visible"/>
		</clipPath>
		<rect x="84.79" y="236.651" clip-path="url(#SVGID_16_)" fill="#FFFFFF" width="551.34" height="101.88"/>
		
			<path clip-path="url(#SVGID_16_)" fill="none" stroke="#FCFCFD" stroke-width="1.06" stroke-linejoin="round" stroke-miterlimit="10" d="
			M84.79,318.331h551.34 M84.79,282.661h551.34 M84.79,247h551.34 M168.22,338.531V236.64 M284.96,338.531V236.64 M400.431,338.531
			V236.64 M515.271,338.531V236.64 M631.37,338.531V236.64"/>
		
			<path clip-path="url(#SVGID_16_)" fill="none" stroke="#EBEBEC" stroke-width="0.43" stroke-linejoin="round" stroke-miterlimit="10" d="
			M84.79,336.161h551.34 M84.79,300.5h551.34 M84.79,264.831h551.34 M109.85,338.531V236.64 M226.59,338.531V236.64 M343.33,338.531
			V236.64 M457.53,338.531V236.64 M573,338.531V236.64"/>
		
			<path clip-path="url(#SVGID_16_)" fill="none" stroke="#13110C" stroke-width="1.06" stroke-linejoin="round" stroke-miterlimit="1" d="
			M109.85,315.97l1.271-9.09l1.27,5.07l1.261,3.21l1.27-6.2l1.271,4.16l1.27-9.36l1.271-48.55l1.27,42.44l1.271,6.569l1.27-38.28
			l1.271,34.48l1.26,11.44l1.27,3.06l1.271,2.31l1.27,3.311l1.271,2.41l1.27-27.67l1.271,18.76l1.27,8.34l1.271,2.18l1.27,0.23
			l1.26,0.86l1.271,0.38l1.27,1.26l1.271,0.68l1.27,0.21l1.271,0.11l1.27-0.41l1.271,0.55l1.27,0.66l1.261-0.08l1.27-0.81l1.27,1.13
			l1.271-8.11l1.27,3.96l1.271,2.38l1.27-3.14l1.271,3.09l1.27,1.22l1.261,1.011l1.27,0.649l1.271,0.45l1.27,0.04l1.271-2.07l1.27,1
			l1.271-7.239l1.27,6.58l1.271,0.779l1.26,0.971l1.27-0.11l1.271-2.15l1.27-2.13l1.271,3.66l1.27,0.25l1.271-0.01l1.27,0.229
			l1.271-2.43l1.26-1.8l1.27-2.75l1.271,1.029l1.27,3.7l1.271,0.271l1.27,0.819l1.271,0.601l1.27,0.45l1.271,0.359l1.27,0.011
			l1.26,0.069l1.271,0.311l1.27-0.021l1.271-0.1l1.27,0.05l1.271,0.11l1.27-0.091l1.271,0.051l1.27,0.359l1.261,0.12l1.27,0.08
			l1.271-0.08l1.27-0.07l1.27-0.039l1.271-0.03l1.27,0.03l1.271-0.03l1.27-0.5l1.261-28.72l1.27,17.909l1.271,6.78l1.27,1.54
			l1.271,0.78l1.27,0.51l1.271,0.47l1.27,0.07l1.27-3.86l1.261,2.61l1.27,0.52l1.271,0.41l1.27,0.42l1.271,0.061l1.27,0.01
			l1.27,0.11l1.271-0.221l1.27-26.68l1.271,14.89l1.26,2.051l1.27-0.511l1.271,3.021l1.27-1.93l1.271-27.29l1.27,14.97l1.271,7.14
			l1.27,4.021l1.271,2.5l1.26,1.21l1.271,0.939l1.27,0.5l1.27,0.69l1.271-0.91l1.27-5.29l1.271,5.54l1.27,0.84l1.271-1.899
			l1.26,0.649l1.271-0.12l1.27,2.07l1.271,0.4l1.27,0.35l1.271-0.55l1.27,0.689l1.27,0.36l1.271,0.82l1.26,0.22l1.271,0.14
			l1.27,0.08l1.271-0.319l1.27,0.369l1.271,0.11l1.27-0.04l1.271,0.24l1.27,0.37l1.26-9.021l1.271,4.24l1.27,1.83l1.271-17.07
			l1.27,12.021l1.271,3.84l1.27-4.6l1.271,2.55l1.27-7.09l1.271,3.8l1.26,3.87l1.27,1.109l1.271,0.261l1.27,1.069l1.271,0.271
			l1.27-2.44l1.271,1.89l1.27,0.851l1.271-13.26l1.26,3.5l1.27-4.92l1.271,0.18l1.27,9.1l1.271,1.811l1.27,0.33l1.271-15.07
			l1.27-47.34l1.271,47.88l1.26-2.33l1.27-0.35l1.271,7.3l1.271-30.42l1.27-42.681l1.271,12.891l1.27-12.601l1.271,53.11l1.27,13.85
			l1.26,6.75l1.271,3.5l1.27-3.93l1.271,4.41l1.27,3l1.271-0.14l1.27,2.149l1.271-7.99l1.27,6.87l1.26,2.021l1.271,0.24l1.27,0.319
			l1.271-4.58l1.27,2.3l1.271,1.971l1.27,0.3l1.271,0.57l1.27,0.38l1.271-0.05l1.26,0.649l1.27,0.2l1.271,0.68l1.27,0.011
			l1.271,0.119l1.27-0.22l1.271,0.18l1.27,0.24l1.271,0.05l1.26-0.5l1.271,0.16l1.27-0.13l1.27-0.04l1.271-11.26l1.27,1.5
			l1.271-48.29l1.27-22.19l1.271,42.25l1.26,12.74l1.271,9.82l1.27-14.851l1.271-1.319l1.27-2.29l1.271-16.24l1.27,31.5l1.27,2.13
			l1.271,1.25l1.26,1.84l1.271,0.891l1.27,3.91l1.271,2.92l1.27-8.141l1.271-10.189l1.27,6.41l1.27-5.15l1.271,6.78l1.26,4.84
			l1.271-0.3l1.27,2.359l1.271,3.09l1.27,1.04l1.271,0.36l1.27,0.73l1.271,1.609l1.27,0.88l1.271-0.29l1.26-0.46l1.27-0.529
			l1.271-2.15l1.27,0.24l1.271,1.29l1.27-0.221l1.271-3.77l1.27-2.1l1.271-2.69l1.26,7.01l1.27,1.73l1.271-0.03l1.27,0.53
			l1.271,0.26l1.27-2.14l1.271,0.369l1.27-6.51l1.271-6.899l1.26,11.34l1.27,1.39l1.271,0.55l1.27,1.16l1.271,1.32l1.27-0.061
			l1.271,0.051l1.27,0.04l1.271,0.159l1.26,0.37l1.27,0.11l1.271-0.38l1.27,0.28l1.271,0.149 M460.07,324.451l1.27-2.53l1.271-3.49
			l1.26,2.75l1.271,0.17l1.27-0.16l1.271,2.101l1.27-0.021l1.271-0.699l1.27-0.33l1.271-0.48l1.27-45.46l1.27,22.99l1.261-10.89
			l1.27,13.71l1.271,0.21l1.27,14.64l1.271,4.01l1.27,2.05l1.271,1.261l1.27,1.409l1.271-0.029l1.26,1.3l1.27,0.14l1.271-6.13
			l1.27,5.91l1.271,1.25l1.27,0.17l1.271,0.55l1.27-0.38l1.271-8.479l1.26,1.83l1.271,5.67l1.27,0.79l1.27,0.659l1.271-0.22
			l1.27-0.46l1.271,0.37l1.27,0.24l1.271,0.319l1.26,0.5l1.271,0.351l1.27-0.49l1.271-0.24l1.27,0.71l1.271-33.939l1.27,7.85
			l1.27,18.32l1.271,2.6l1.26,2.45l1.271-4.96l1.27,2.46l1.271,3.86l1.27,0.939l1.271-8.199l1.27-2.021l1.271,7.44l1.27,0.609
			l1.271-2.56l1.26-0.96l1.27,3.899l1.271,0.75l1.27,0.28l1.271,0.15l1.27,0.33l1.271,0.359l1.27,0.351l1.271,0.21l1.26,0.26
			l1.27,0.04l1.271-1.09l1.27,1.02l1.271,0.29l1.27-0.95l1.271,0.75l1.27,0.051l1.271,0.1l1.26,0.36l1.271,0.119l1.27-0.149
			l1.271-0.88l1.27-7.49l1.27,4.85l1.271,2.25l1.271,0.74l1.27,0.29l1.26-0.6l1.271,0.68l1.27,0.49l1.271,0.28l1.27-0.37l1.271-1.33
			l1.27,1.439l1.271,0.351l1.27,0.29l1.27,0.159l1.261,0.021l1.27,0.15l1.271,0.079l1.27,0.061l1.27,0.13l1.271,0.08l1.27,0.01
			l1.271,0.21l1.27,0.05h1.26l1.271,0.15l1.27-0.06l1.271,0.069l1.27,0.04l1.271,0.08l1.27-0.74l1.271-1.119l1.27,0.81l1.26,0.21
			l1.271,0.34l1.27-7.27l1.271-4.24l1.27,0.11l1.271-16.54l1.27,14.96l1.271,2.14l1.27,5.8l1.26,2.07l1.271,0.79l1.27,0.89
			l1.271,0.061l1.27,0.04l1.271-1.9l1.27,0.71l1.271,1.1l1.27,0.341l1.26,0.17l1.271,0.149l1.27,0.4l1.271,0.26l1.27,0.08
			l1.271,0.26l1.27,0.15l1.271-0.061l1.27-0.529l1.271,0.25l1.26-0.061l1.27-0.6l1.271,0.399l1.27,0.431l1.271,0.189l1.27,0.07
			l1.271,0.03l1.27,0.16l1.271,0.14l0.12,0.01"/>
	</g>
	<text transform="matrix(1 0 0 1 104.3989 252.0142)" fill="#13110C" font-family="'Helvetica'" font-size="14">c.</text>
	<g>
		<defs>
			<rect id="SVGID_17_" x="84.79" y="236.64" width="551.34" height="101.891"/>
		</defs>
		<clipPath id="SVGID_18_">
			<use xlink:href="#SVGID_17_"  overflow="visible"/>
		</clipPath>
		
			<rect x="84.79" y="236.651" clip-path="url(#SVGID_18_)" fill="none" stroke="#888483" stroke-width="1.06" stroke-linecap="round" stroke-linejoin="round" stroke-miterlimit="10" width="551.34" height="101.88"/>
	</g>
	<g>
		<defs>
			<rect id="SVGID_19_" x="84.79" y="347.05" width="551.34" height="101.891"/>
		</defs>
		<clipPath id="SVGID_20_">
			<use xlink:href="#SVGID_19_"  overflow="visible"/>
		</clipPath>
		<rect x="84.79" y="347.06" clip-path="url(#SVGID_20_)" fill="#FFFFFF" width="551.34" height="101.881"/>
		
			<path clip-path="url(#SVGID_20_)" fill="none" stroke="#FCFCFD" stroke-width="1.06" stroke-linejoin="round" stroke-miterlimit="10" d="
			M84.79,425.881h551.34 M84.79,398.9h551.34 M84.79,371.92h551.34 M168.22,448.941V347.05 M284.96,448.941V347.05 M400.431,448.941
			V347.05 M515.271,448.941V347.05 M631.37,448.941V347.05"/>
		
			<path clip-path="url(#SVGID_20_)" fill="none" stroke="#EBEBEC" stroke-width="0.43" stroke-linejoin="round" stroke-miterlimit="10" d="
			M84.79,439.371h551.34 M84.79,412.391h551.34 M84.79,385.41h551.34 M84.79,358.43h551.34 M109.85,448.941V347.05 M226.59,448.941
			V347.05 M343.33,448.941V347.05 M457.53,448.941V347.05 M573,448.941V347.05"/>
	</g>
	<path fill="#13110C" d="M184.3,388.061c0-1.176-0.954-2.131-2.13-2.131s-2.13,0.955-2.13,2.131s0.954,2.131,2.13,2.131
		S184.3,389.236,184.3,388.061"/>
	<path fill="#13110C" d="M184.3,381.102c0-1.176-0.954-2.131-2.13-2.131s-2.13,0.955-2.13,2.131s0.954,2.129,2.13,2.129
		S184.3,382.277,184.3,381.102"/>
	<path fill="#13110C" d="M184.3,387.221c0-1.176-0.954-2.131-2.13-2.131s-2.13,0.955-2.13,2.131s0.954,2.131,2.13,2.131
		S184.3,388.396,184.3,387.221"/>
	<path fill="#13110C" d="M184.3,352.06c0-1.176-0.954-2.13-2.13-2.13s-2.13,0.954-2.13,2.13s0.954,2.13,2.13,2.13
		S184.3,353.236,184.3,352.06"/>
	<path fill="#13110C" d="M184.3,370.541c0-1.176-0.954-2.131-2.13-2.131s-2.13,0.955-2.13,2.131s0.954,2.129,2.13,2.129
		S184.3,371.717,184.3,370.541"/>
	<path fill="none" stroke="#3B3835" stroke-width="1.06" stroke-linejoin="round" stroke-miterlimit="10" d="M182.18,410.852
		v-18.971 M182.18,424.34v14.441"/>
	
		<polygon fill="#FFFFFF" stroke="#3B3835" stroke-width="1.06" stroke-linecap="round" stroke-linejoin="round" stroke-miterlimit="10" points="
		137.92,410.852 137.92,424.34 226.43,424.34 226.43,410.852 137.92,410.852 	"/>
	
		<line fill="none" stroke="#3B3835" stroke-width="2.13" stroke-linejoin="round" stroke-miterlimit="10" x1="137.92" y1="419.08" x2="226.43" y2="419.08"/>
	<path fill="#13110C" d="M408.94,418.18c0-1.176-0.954-2.129-2.13-2.129s-2.13,0.953-2.13,2.129s0.954,2.131,2.13,2.131
		S408.94,419.355,408.94,418.18"/>
	<path fill="#13110C" d="M408.94,420.701c0-1.176-0.954-2.131-2.13-2.131s-2.13,0.955-2.13,2.131s0.954,2.129,2.13,2.129
		S408.94,421.877,408.94,420.701"/>
	<g>
		<defs>
			<rect id="SVGID_21_" x="84.79" y="347.05" width="551.34" height="101.891"/>
		</defs>
		<clipPath id="SVGID_22_">
			<use xlink:href="#SVGID_21_"  overflow="visible"/>
		</clipPath>
		
			<path clip-path="url(#SVGID_22_)" fill="none" stroke="#3B3835" stroke-width="1.06" stroke-linejoin="round" stroke-miterlimit="10" d="
			M406.771,435.852v-6.9 M406.771,441.68v2.602"/>
		
			<polygon clip-path="url(#SVGID_22_)" fill="#FFFFFF" stroke="#3B3835" stroke-width="1.06" stroke-linecap="round" stroke-linejoin="round" stroke-miterlimit="10" points="
			362.521,435.852 362.521,441.68 451.03,441.68 451.03,435.852 362.521,435.852 		"/>
		
			<line clip-path="url(#SVGID_22_)" fill="none" stroke="#3B3835" stroke-width="2.13" stroke-linejoin="round" stroke-miterlimit="10" x1="362.521" y1="439.5" x2="451.03" y2="439.5"/>
	</g>
	<path fill="#13110C" d="M526.9,373.9c0-1.176-0.954-2.129-2.13-2.129s-2.13,0.953-2.13,2.129s0.954,2.131,2.13,2.131
		S526.9,375.076,526.9,373.9"/>
	<path fill="#13110C" d="M526.9,372.221c0-1.176-0.954-2.131-2.13-2.131s-2.13,0.955-2.13,2.131s0.954,2.131,2.13,2.131
		S526.9,373.396,526.9,372.221"/>
	<path fill="#13110C" d="M526.9,368.381c0-1.176-0.954-2.131-2.13-2.131s-2.13,0.955-2.13,2.131s0.954,2.129,2.13,2.129
		S526.9,369.557,526.9,368.381"/>
	<path fill="#13110C" d="M526.9,389.861c0-1.176-0.954-2.131-2.13-2.131s-2.13,0.955-2.13,2.131s0.954,2.129,2.13,2.129
		S526.9,391.037,526.9,389.861"/>
	<path fill="#13110C" d="M526.9,381.82c0-1.176-0.954-2.129-2.13-2.129s-2.13,0.953-2.13,2.129s0.954,2.131,2.13,2.131
		S526.9,382.996,526.9,381.82"/>
	<path fill="#13110C" d="M526.9,388.66c0-1.176-0.954-2.129-2.13-2.129s-2.13,0.953-2.13,2.129s0.954,2.131,2.13,2.131
		S526.9,389.836,526.9,388.66"/>
	<path fill="#13110C" d="M526.9,383.861c0-1.176-0.954-2.131-2.13-2.131s-2.13,0.955-2.13,2.131s0.954,2.129,2.13,2.129
		S526.9,385.037,526.9,383.861"/>
	<path fill="#13110C" d="M526.9,372.82c0-1.176-0.954-2.129-2.13-2.129s-2.13,0.953-2.13,2.129s0.954,2.131,2.13,2.131
		S526.9,373.996,526.9,372.82"/>
	<path fill="none" stroke="#3B3835" stroke-width="1.06" stroke-linejoin="round" stroke-miterlimit="10" d="M524.78,409.68v-14.77
		 M524.78,422.41v16.9"/>
	
		<polygon fill="#FFFFFF" stroke="#3B3835" stroke-width="1.06" stroke-linecap="round" stroke-linejoin="round" stroke-miterlimit="10" points="
		480.53,409.68 480.53,422.41 569.04,422.41 569.04,409.68 480.53,409.68 	"/>
	
		<line fill="none" stroke="#3B3835" stroke-width="2.13" stroke-linejoin="round" stroke-miterlimit="10" x1="480.53" y1="418.26" x2="569.04" y2="418.26"/>
	<g>
		<defs>
			<rect id="SVGID_23_" x="84.79" y="347.05" width="551.34" height="101.891"/>
		</defs>
		<clipPath id="SVGID_24_">
			<use xlink:href="#SVGID_23_"  overflow="visible"/>
		</clipPath>
		<g clip-path="url(#SVGID_24_)">
			<text transform="matrix(1 0 0 1 104.0083 356.7095)" fill="#13110C" font-family="'Helvetica'" font-size="14">d</text>
		</g>
	</g>
	<text transform="matrix(1 0 0 1 111.7974 356.7095)" fill="#13110C" font-family="'Helvetica'" font-size="14">.</text>
	<g>
		<defs>
			<rect id="SVGID_25_" x="84.79" y="347.05" width="551.34" height="101.891"/>
		</defs>
		<clipPath id="SVGID_26_">
			<use xlink:href="#SVGID_25_"  overflow="visible"/>
		</clipPath>
		
			<polyline clip-path="url(#SVGID_26_)" fill="none" stroke="#E31013" stroke-width="2.13" stroke-linejoin="round" stroke-miterlimit="1" points="
			109.85,427.361 111.12,427.42 112.39,427.451 113.65,427.701 114.92,427.711 116.19,427.24 117.46,426.531 118.73,425.771 
			120,425.121 121.271,424.621 122.54,424.301 123.811,424.211 125.07,424.781 126.34,425.721 127.61,426.871 128.88,428.391 
			130.15,429.871 131.42,430.951 132.69,431.99 133.96,432.43 135.23,432.611 136.5,432.66 137.76,432.451 139.03,432.25 
			140.3,432.131 141.57,431.961 142.84,431.811 144.11,431.51 145.38,431.121 146.65,430.74 147.92,430.23 149.181,429.871 
			150.45,429.58 151.72,429.5 152.99,429.631 154.26,429.58 155.53,429.24 156.8,428.721 158.07,428.021 159.34,427.1 
			160.601,425.891 161.87,424.58 163.141,423.67 164.41,423.121 165.681,422.852 166.95,422.531 168.221,422.23 169.49,422.16 
			170.761,421.971 172.021,421.621 173.29,421.291 174.561,421 175.83,420.941 177.101,421.23 178.37,421.621 179.641,422.41 
			180.91,423.311 182.181,424.09 183.44,424.881 184.71,425.691 185.98,426.35 187.25,426.971 188.521,427.311 189.79,427.49 
			191.061,427.551 192.33,427.361 193.601,427.01 194.87,426.641 196.13,426.102 197.4,425.58 198.67,425.121 199.94,424.961 
			201.21,425.102 202.48,425.361 203.75,425.621 205.021,425.83 206.29,425.961 207.551,426.09 208.82,425.951 210.091,425.73 
			211.36,425.531 212.63,425.381 213.9,425.48 215.17,425.93 216.44,426.361 217.71,426.92 218.971,427.42 220.24,427.84 
			221.511,428.111 222.78,428.17 224.051,427.99 225.32,427.852 226.591,427.74 227.86,427.65 229.13,427.602 230.391,427.73 
			231.66,428.01 232.931,428.34 234.2,428.59 235.471,428.771 236.74,429.01 238.01,429.211 239.28,429.291 240.55,429.451 
			241.82,429.701 243.08,430.061 244.35,430.461 245.62,430.781 246.89,431.131 248.16,431.66 249.43,432.01 250.7,432.191 
			251.97,432.281 253.24,432.352 254.5,432.461 255.771,432.611 257.04,432.391 258.31,432.15 259.58,431.92 260.85,431.771 
			262.12,431.58 263.39,431.381 264.66,431.102 265.92,431.09 267.19,431.291 268.46,431.66 269.73,431.99 271,432.371 
			272.271,432.781 273.54,433.271 274.81,433.631 276.08,433.75 277.34,432.9 278.61,432.021 279.88,430.93 281.15,429.891 
			282.42,428.9 283.69,427.99 284.96,427.281 286.23,428.352 287.5,429.561 288.76,431.352 290.03,432.951 291.3,434.41 
			292.57,435.941 293.84,437.291 295.11,437.68 296.38,437.871 297.65,437.48 298.92,437.141 300.19,436.84 301.45,436.361 
			302.72,435.891 303.99,435.42 305.26,435.051 306.53,434.871 307.8,434.711 309.07,434.641 310.34,434.701 311.61,434.891 
			312.87,435.09 314.14,435.221 315.41,435.32 316.68,435.371 317.95,435.33 319.22,435.191 320.49,434.9 321.76,434.65 
			323.03,434.531 324.29,434.531 325.56,434.631 326.83,434.83 328.101,435.18 329.37,435.91 330.641,436.881 331.91,438.051 
			333.181,439.291 334.45,440.57 335.71,441.881 336.98,443.102 338.25,443.9 339.521,444.301 340.79,444.201 342.061,443.881 
			343.33,443.371 344.601,442.721 345.87,442.021 347.13,441.33 348.4,440.73 349.67,440.32 350.94,440.08 352.21,440.102 
			353.48,440.141 354.75,440.221 356.021,440.391 357.29,440.641 358.561,440.971 359.82,441.16 361.09,441.061 362.36,440.9 
			363.63,440.701 364.9,440.461 366.17,440.121 367.44,439.68 368.71,439.17 369.98,438.771 371.24,438.541 372.511,438.4 
			373.78,438.371 375.05,438.49 376.32,438.781 377.59,439.352 378.86,440.041 380.13,440.771 381.4,441.51 382.66,442.271 
			383.931,442.971 385.2,443.5 386.471,443.781 387.74,443.881 389.011,443.75 390.28,443.48 391.55,442.98 392.82,442.311 
			394.08,441.57 395.351,440.93 396.62,440.281 397.891,439.75 399.16,439.34 400.431,439.211 401.7,439.4 402.97,439.881 
			404.24,440.391 405.5,441.051 406.771,441.66 408.04,442.191 409.311,442.41 410.58,442.391 411.851,442.111 413.12,441.73 
			414.391,441.281 415.66,440.83 416.931,440.391 418.19,440.141 419.46,439.881 420.73,439.691 422,439.561 423.271,439.43 
			424.54,439.281 425.811,439.07 427.08,438.771 428.351,438.441 429.61,438.09 430.88,437.711 432.15,437.281 433.42,437.76 
			434.69,438.441 435.96,439.221 437.23,440.191 438.5,441.201 439.771,442.15 441.03,443.102 442.3,442.271 443.57,441.221 
			444.84,440.17 446.11,439.031 447.38,437.891 448.65,436.91 449.92,436.031 451.19,436.07 452.45,436.26 453.72,436.4 
			454.99,436.541 456.26,436.67 457.53,436.701 458.8,436.68 460.07,436.541 461.34,436.23 462.61,435.721 463.87,434.83 
			465.141,433.701 466.41,432.381 467.681,430.92 468.95,429.561 470.22,428.371 471.49,427.24 472.761,426.551 474.03,426.061 
			475.3,425.701 476.561,425.4 477.83,424.951 479.101,424.361 480.37,424.111 481.641,424 482.91,424.111 484.181,424.451 
			485.45,424.971 486.721,425.711 487.98,426.541 489.25,427.18 490.521,427.5 491.79,427.58 493.061,427.43 494.33,427.131 
			495.601,426.76 496.87,426.43 498.141,426.01 499.4,425.871 500.67,425.9 501.94,426.102 503.21,426.441 504.48,426.711 
			505.75,426.91 507.021,427.191 508.29,427.23 509.561,427.09 510.82,426.801 512.091,426.32 513.36,426.041 514.63,425.83 
			515.9,425.66 517.17,425.531 518.44,425.301 519.71,425.021 520.98,424.711 522.24,424.17 523.511,423.441 524.78,422.471 
			526.051,421.58 527.32,421.021 528.591,420.602 529.86,420.361 531.13,420.211 532.4,420.301 533.671,420.641 534.931,420.781 
			536.2,420.641 537.471,420.51 538.74,420.301 540.011,419.99 541.28,419.57 542.551,419.09 543.82,418.91 545.091,418.852 
			546.351,418.711 547.62,418.59 548.891,418.75 550.16,419.061 551.431,419.5 552.7,419.941 553.971,420.51 555.24,421.23 
			556.511,422.021 557.771,422.68 559.04,423.24 560.311,423.67 561.58,423.971 562.851,423.92 564.12,423.691 565.391,423.352 
			566.66,422.801 567.931,422.141 569.19,421.311 570.46,420.34 571.73,419.641 573.001,419 574.271,418.41 575.54,418.051 
			576.811,417.871 578.081,418.07 579.351,418.67 580.62,419.361 581.881,420.18 583.15,421.031 584.421,421.852 585.69,422.57 
			586.96,423.07 588.23,423.23 589.5,423.191 590.771,423.021 592.04,422.852 593.301,422.73 594.57,422.801 595.841,423.061 
			597.11,423.51 598.38,424.201 599.65,425.17 600.92,425.99 602.19,426.43 603.46,426.461 604.721,426.131 605.99,425.551 
			607.261,424.721 608.53,423.34 609.8,422.051 611.07,421.25 		"/>
		
			<rect x="84.79" y="347.06" clip-path="url(#SVGID_26_)" fill="none" stroke="#888483" stroke-width="1.06" stroke-linecap="round" stroke-linejoin="round" stroke-miterlimit="10" width="551.34" height="101.881"/>
	</g>
	<g>
		<defs>
			<rect id="SVGID_27_" x="84.79" y="457.461" width="551.34" height="101.891"/>
		</defs>
		<clipPath id="SVGID_28_">
			<use xlink:href="#SVGID_27_"  overflow="visible"/>
		</clipPath>
		<rect x="84.79" y="457.471" clip-path="url(#SVGID_28_)" fill="#FFFFFF" width="551.34" height="101.881"/>
		
			<path clip-path="url(#SVGID_28_)" fill="none" stroke="#FCFCFD" stroke-width="1.06" stroke-linejoin="round" stroke-miterlimit="10" d="
			M84.79,542.461h551.34 M84.79,517.73h551.34 M84.79,493h551.34 M84.79,468.281h551.34 M168.22,559.352V457.461 M284.96,559.352
			V457.461 M400.431,559.352V457.461 M515.271,559.352V457.461 M631.37,559.352V457.461"/>
		
			<path clip-path="url(#SVGID_28_)" fill="none" stroke="#EBEBEC" stroke-width="0.43" stroke-linejoin="round" stroke-miterlimit="10" d="
			M84.79,554.82h551.34 M84.79,530.102h551.34 M84.79,505.371h551.34 M84.79,480.641h551.34 M109.85,559.352V457.461
			 M226.59,559.352V457.461 M343.33,559.352V457.461 M457.53,559.352V457.461 M573,559.352V457.461"/>
	</g>
	<path fill="#13110C" d="M184.3,554.74c0-1.176-0.954-2.129-2.13-2.129s-2.13,0.953-2.13,2.129s0.954,2.131,2.13,2.131
		S184.3,555.916,184.3,554.74"/>
	<path fill="#13110C" d="M184.3,480.34c0-1.176-0.954-2.129-2.13-2.129s-2.13,0.953-2.13,2.129s0.954,2.131,2.13,2.131
		S184.3,481.516,184.3,480.34"/>
	<path fill="#13110C" d="M184.3,478.66c0-1.176-0.954-2.129-2.13-2.129s-2.13,0.953-2.13,2.129s0.954,2.131,2.13,2.131
		S184.3,479.836,184.3,478.66"/>
	<path fill="#13110C" d="M184.3,463.781c0-1.176-0.954-2.131-2.13-2.131s-2.13,0.955-2.13,2.131s0.954,2.129,2.13,2.129
		S184.3,464.957,184.3,463.781"/>
	<path fill="none" stroke="#3B3835" stroke-width="1.06" stroke-linejoin="round" stroke-miterlimit="10" d="M182.18,509.91v-14.34
		 M182.18,520.43v15.102"/>
	
		<polygon fill="#FFFFFF" stroke="#3B3835" stroke-width="1.06" stroke-linecap="round" stroke-linejoin="round" stroke-miterlimit="10" points="
		137.92,509.91 137.92,520.43 226.43,520.43 226.43,509.91 137.92,509.91 	"/>
	
		<line fill="none" stroke="#3B3835" stroke-width="2.13" stroke-linejoin="round" stroke-miterlimit="10" x1="137.92" y1="514.461" x2="226.43" y2="514.461"/>
	<path fill="#13110C" d="M408.94,533.74c0-1.176-0.954-2.129-2.13-2.129s-2.13,0.953-2.13,2.129s0.954,2.131,2.13,2.131
		S408.94,534.916,408.94,533.74"/>
	<path fill="#13110C" d="M408.94,532.66c0-1.176-0.954-2.129-2.13-2.129s-2.13,0.953-2.13,2.129s0.954,2.131,2.13,2.131
		S408.94,533.836,408.94,532.66"/>
	<path fill="#13110C" d="M408.94,532.42c0-1.176-0.954-2.129-2.13-2.129s-2.13,0.953-2.13,2.129s0.954,2.131,2.13,2.131
		S408.94,533.596,408.94,532.42"/>
	<path fill="#13110C" d="M408.94,513.58c0-1.176-0.954-2.129-2.13-2.129s-2.13,0.953-2.13,2.129s0.954,2.131,2.13,2.131
		S408.94,514.756,408.94,513.58"/>
	<path fill="#13110C" d="M408.94,513.941c0-1.176-0.954-2.131-2.13-2.131s-2.13,0.955-2.13,2.131s0.954,2.129,2.13,2.129
		S408.94,515.117,408.94,513.941"/>
	<path fill="#13110C" d="M408.94,518.381c0-1.176-0.954-2.131-2.13-2.131s-2.13,0.955-2.13,2.131s0.954,2.129,2.13,2.129
		S408.94,519.557,408.94,518.381"/>
	<path fill="#13110C" d="M408.94,519.58c0-1.176-0.954-2.129-2.13-2.129s-2.13,0.953-2.13,2.129s0.954,2.131,2.13,2.131
		S408.94,520.756,408.94,519.58"/>
	<path fill="#13110C" d="M408.94,517.781c0-1.176-0.954-2.131-2.13-2.131s-2.13,0.955-2.13,2.131s0.954,2.129,2.13,2.129
		S408.94,518.957,408.94,517.781"/>
	<path fill="#13110C" d="M408.94,518.021c0-1.176-0.954-2.131-2.13-2.131s-2.13,0.955-2.13,2.131s0.954,2.129,2.13,2.129
		S408.94,519.197,408.94,518.021"/>
	<path fill="#13110C" d="M408.94,520.301c0-1.176-0.954-2.131-2.13-2.131s-2.13,0.955-2.13,2.131s0.954,2.129,2.13,2.129
		S408.94,521.477,408.94,520.301"/>
	<path fill="#13110C" d="M408.94,505.301c0-1.176-0.954-2.131-2.13-2.131s-2.13,0.955-2.13,2.131s0.954,2.129,2.13,2.129
		S408.94,506.477,408.94,505.301"/>
	<path fill="none" stroke="#3B3835" stroke-width="1.06" stroke-linejoin="round" stroke-miterlimit="10" d="M406.771,524.861
		v-4.221 M406.771,527.781v4.17"/>
	
		<polygon fill="#FFFFFF" stroke="#3B3835" stroke-width="1.06" stroke-linecap="round" stroke-linejoin="round" stroke-miterlimit="10" points="
		362.521,524.861 362.521,527.781 451.03,527.781 451.03,524.861 362.521,524.861 	"/>
	
		<line fill="none" stroke="#3B3835" stroke-width="2.13" stroke-linejoin="round" stroke-miterlimit="10" x1="362.521" y1="525.852" x2="451.03" y2="525.852"/>
	<path fill="#13110C" d="M526.9,533.141c0-1.176-0.954-2.131-2.13-2.131s-2.13,0.955-2.13,2.131s0.954,2.131,2.13,2.131
		S526.9,534.316,526.9,533.141"/>
	<path fill="#13110C" d="M526.9,534.941c0-1.176-0.954-2.131-2.13-2.131s-2.13,0.955-2.13,2.131s0.954,2.129,2.13,2.129
		S526.9,536.117,526.9,534.941"/>
	<path fill="#13110C" d="M526.9,537.221c0-1.176-0.954-2.131-2.13-2.131s-2.13,0.955-2.13,2.131s0.954,2.131,2.13,2.131
		S526.9,538.396,526.9,537.221"/>
	<path fill="#13110C" d="M526.9,535.781c0-1.176-0.954-2.131-2.13-2.131s-2.13,0.955-2.13,2.131s0.954,2.129,2.13,2.129
		S526.9,536.957,526.9,535.781"/>
	<path fill="#13110C" d="M526.9,515.381c0-1.176-0.954-2.131-2.13-2.131s-2.13,0.955-2.13,2.131s0.954,2.129,2.13,2.129
		S526.9,516.557,526.9,515.381"/>
	<path fill="#13110C" d="M526.9,503.5c0-1.176-0.954-2.129-2.13-2.129s-2.13,0.953-2.13,2.129s0.954,2.131,2.13,2.131
		S526.9,504.676,526.9,503.5"/>
	<path fill="#13110C" d="M526.9,516.102c0-1.176-0.954-2.131-2.13-2.131s-2.13,0.955-2.13,2.131s0.954,2.129,2.13,2.129
		S526.9,517.277,526.9,516.102"/>
	<path fill="#13110C" d="M526.9,512.98c0-1.176-0.954-2.129-2.13-2.129s-2.13,0.953-2.13,2.129s0.954,2.131,2.13,2.131
		S526.9,514.156,526.9,512.98"/>
	<path fill="#13110C" d="M526.9,501.221c0-1.176-0.954-2.131-2.13-2.131s-2.13,0.955-2.13,2.131s0.954,2.131,2.13,2.131
		S526.9,502.396,526.9,501.221"/>
	<path fill="#13110C" d="M526.9,496.42c0-1.176-0.954-2.129-2.13-2.129s-2.13,0.953-2.13,2.129s0.954,2.131,2.13,2.131
		S526.9,497.596,526.9,496.42"/>
	<path fill="#13110C" d="M526.9,490.42c0-1.176-0.954-2.129-2.13-2.129s-2.13,0.953-2.13,2.129s0.954,2.131,2.13,2.131
		S526.9,491.596,526.9,490.42"/>
	<path fill="#13110C" d="M526.9,498.82c0-1.176-0.954-2.129-2.13-2.129s-2.13,0.953-2.13,2.129s0.954,2.131,2.13,2.131
		S526.9,499.996,526.9,498.82"/>
	<path fill="#13110C" d="M526.9,511.061c0-1.176-0.954-2.131-2.13-2.131s-2.13,0.955-2.13,2.131s0.954,2.131,2.13,2.131
		S526.9,512.236,526.9,511.061"/>
	<path fill="#13110C" d="M526.9,497.381c0-1.176-0.954-2.131-2.13-2.131s-2.13,0.955-2.13,2.131s0.954,2.129,2.13,2.129
		S526.9,498.557,526.9,497.381"/>
	<path fill="none" stroke="#3B3835" stroke-width="1.06" stroke-linejoin="round" stroke-miterlimit="10" d="M524.78,522.68v-4.76
		 M524.78,526.74v4.611"/>
	
		<polygon fill="#FFFFFF" stroke="#3B3835" stroke-width="1.06" stroke-linecap="round" stroke-linejoin="round" stroke-miterlimit="10" points="
		480.53,522.68 480.53,526.74 569.04,526.74 569.04,522.68 480.53,522.68 	"/>
	
		<line fill="none" stroke="#3B3835" stroke-width="2.13" stroke-linejoin="round" stroke-miterlimit="10" x1="480.53" y1="524.58" x2="569.04" y2="524.58"/>
	<g>
		<defs>
			<rect id="SVGID_29_" x="84.79" y="457.461" width="551.34" height="101.891"/>
		</defs>
		<clipPath id="SVGID_30_">
			<use xlink:href="#SVGID_29_"  overflow="visible"/>
		</clipPath>
		
			<rect x="84.79" y="457.471" clip-path="url(#SVGID_30_)" fill="none" stroke="#888483" stroke-width="1.06" stroke-linecap="round" stroke-linejoin="round" stroke-miterlimit="10" width="551.34" height="101.881"/>
	</g>
	<g>
		<defs>
			<rect id="SVGID_31_" x="84.79" y="567.871" width="551.34" height="101.889"/>
		</defs>
		<clipPath id="SVGID_32_">
			<use xlink:href="#SVGID_31_"  overflow="visible"/>
		</clipPath>
		<rect x="84.79" y="567.881" clip-path="url(#SVGID_32_)" fill="#FFFFFF" width="551.34" height="101.879"/>
		
			<path clip-path="url(#SVGID_32_)" fill="none" stroke="#FCFCFD" stroke-width="1.06" stroke-linejoin="round" stroke-miterlimit="10" d="
			M84.79,659.521h551.34 M84.79,640.66h551.34 M84.79,621.801h551.34 M84.79,602.941h551.34 M84.79,584.08h551.34 M168.22,669.76
			V567.871 M284.96,669.76V567.871 M400.431,669.76V567.871 M515.271,669.76V567.871 M631.37,669.76V567.871"/>
		
			<path clip-path="url(#SVGID_32_)" fill="none" stroke="#EBEBEC" stroke-width="0.43" stroke-linejoin="round" stroke-miterlimit="10" d="
			M84.79,668.951h551.34 M84.79,650.09h551.34 M84.79,631.23h551.34 M84.79,612.371h551.34 M84.79,593.51h551.34 M84.79,574.65
			h551.34 M109.85,669.76V567.871 M226.59,669.76V567.871 M343.33,669.76V567.871 M457.53,669.76V567.871 M573,669.76V567.871"/>
	</g>
	<path fill="#13110C" d="M184.3,581.621c0-1.176-0.954-2.131-2.13-2.131s-2.13,0.955-2.13,2.131s0.954,2.129,2.13,2.129
		S184.3,582.797,184.3,581.621"/>
	<path fill="#13110C" d="M184.3,574.061c0-1.176-0.954-2.131-2.13-2.131s-2.13,0.955-2.13,2.131s0.954,2.131,2.13,2.131
		S184.3,575.236,184.3,574.061"/>
	<path fill="#13110C" d="M184.3,572.5c0-1.176-0.954-2.129-2.13-2.129s-2.13,0.953-2.13,2.129s0.954,2.131,2.13,2.131
		S184.3,573.676,184.3,572.5"/>
	<path fill="#13110C" d="M184.3,580.061c0-1.176-0.954-2.131-2.13-2.131s-2.13,0.955-2.13,2.131s0.954,2.131,2.13,2.131
		S184.3,581.236,184.3,580.061"/>
	<g>
		<defs>
			<rect id="SVGID_33_" x="84.79" y="567.871" width="551.34" height="101.889"/>
		</defs>
		<clipPath id="SVGID_34_">
			<use xlink:href="#SVGID_33_"  overflow="visible"/>
		</clipPath>
		
			<path clip-path="url(#SVGID_34_)" fill="none" stroke="#3B3835" stroke-width="1.06" stroke-linejoin="round" stroke-miterlimit="10" d="
			M182.18,625.711v-40.1 M182.18,653.791v10.73"/>
	</g>
	
		<polygon fill="#FFFFFF" stroke="#3B3835" stroke-width="1.06" stroke-linecap="round" stroke-linejoin="round" stroke-miterlimit="10" points="
		137.92,625.711 137.92,653.791 226.43,653.791 226.43,625.711 137.92,625.711 	"/>
	
		<line fill="none" stroke="#3B3835" stroke-width="2.13" stroke-linejoin="round" stroke-miterlimit="10" x1="137.92" y1="641.74" x2="226.43" y2="641.74"/>
	<path fill="#13110C" d="M408.94,643.301c0-1.176-0.954-2.131-2.13-2.131s-2.13,0.955-2.13,2.131s0.954,2.129,2.13,2.129
		S408.94,644.477,408.94,643.301"/>
	<path fill="#13110C" d="M408.94,646.541c0-1.176-0.954-2.131-2.13-2.131s-2.13,0.955-2.13,2.131s0.954,2.129,2.13,2.129
		S408.94,647.717,408.94,646.541"/>
	<g>
		<defs>
			<rect id="SVGID_35_" x="84.79" y="567.871" width="551.34" height="101.889"/>
		</defs>
		<clipPath id="SVGID_36_">
			<use xlink:href="#SVGID_35_"  overflow="visible"/>
		</clipPath>
		
			<path clip-path="url(#SVGID_36_)" fill="none" stroke="#3B3835" stroke-width="1.06" stroke-linejoin="round" stroke-miterlimit="10" d="
			M406.771,656.73v-8.449 M406.771,662.701v2.43"/>
		
			<polygon clip-path="url(#SVGID_36_)" fill="#FFFFFF" stroke="#3B3835" stroke-width="1.06" stroke-linecap="round" stroke-linejoin="round" stroke-miterlimit="10" points="
			362.521,656.73 362.521,662.701 451.03,662.701 451.03,656.73 362.521,656.73 		"/>
		
			<line clip-path="url(#SVGID_36_)" fill="none" stroke="#3B3835" stroke-width="2.13" stroke-linejoin="round" stroke-miterlimit="10" x1="362.521" y1="660.391" x2="451.03" y2="660.391"/>
	</g>
	<path fill="none" stroke="#3B3835" stroke-width="1.06" stroke-linejoin="round" stroke-miterlimit="10" d="M524.78,634.42v-20.568
		 M524.78,655.621v8"/>
	
		<polygon fill="#FFFFFF" stroke="#3B3835" stroke-width="1.06" stroke-linecap="round" stroke-linejoin="round" stroke-miterlimit="10" points="
		480.53,634.42 480.53,655.621 569.04,655.621 569.04,634.42 480.53,634.42 	"/>
	
		<line fill="none" stroke="#3B3835" stroke-width="2.13" stroke-linejoin="round" stroke-miterlimit="10" x1="480.53" y1="647.621" x2="569.04" y2="647.621"/>
	<g>
		<defs>
			<rect id="SVGID_37_" x="84.79" y="567.871" width="551.34" height="101.889"/>
		</defs>
		<clipPath id="SVGID_38_">
			<use xlink:href="#SVGID_37_"  overflow="visible"/>
		</clipPath>
		
			<polyline clip-path="url(#SVGID_38_)" fill="none" stroke="#E31013" stroke-width="2.13" stroke-linejoin="round" stroke-miterlimit="1" points="
			109.85,653.99 111.12,653.5 112.39,652.811 113.65,652.801 114.92,652.92 116.19,653.311 117.46,653.441 118.73,652.721 
			120,652.75 121.271,652.871 122.54,651.92 123.811,651.521 125.07,651.791 126.34,652.031 127.61,653.32 128.88,653.84 
			130.15,654.4 131.42,654.65 132.69,654.811 133.96,654.83 135.23,654.93 136.5,654.93 137.76,655 139.03,655.061 140.3,656.16 
			141.57,656.951 142.84,657.551 144.11,657.641 145.38,657.49 146.65,657.34 147.92,657.381 149.181,657.49 150.45,657.09 
			151.72,656.66 152.99,656.82 154.26,656.311 155.53,655.99 156.8,654.301 158.07,653.59 159.34,653.531 160.601,653.631 
			161.87,653.41 163.141,654.361 164.41,654.971 165.681,655.951 166.95,655.73 168.221,654.541 169.49,653.811 170.761,653.17 
			172.021,652.811 173.29,652.381 174.561,652.23 175.83,651.881 177.101,652.91 178.37,653.25 179.641,653.58 180.91,653.551 
			182.181,653.781 183.44,654 184.71,654.23 185.98,653.711 187.25,653.92 188.521,654.141 189.79,654.42 191.061,654.531 
			192.33,655.18 193.601,656.49 194.87,657.99 196.13,658.48 197.4,659 198.67,659.24 199.94,659.561 201.21,659.83 202.48,659.941 
			203.75,659.98 205.021,660.211 206.29,660.281 207.551,660.471 208.82,660.602 210.091,660.74 211.36,660.891 212.63,661.26 
			213.9,661.67 215.17,662 216.44,662.441 217.71,662.631 218.971,661.441 220.24,660.5 221.511,659.74 222.78,659.08 
			224.051,658.541 225.32,657.91 226.591,657.65 227.86,658.75 229.13,659.17 230.391,659.65 231.66,659.871 232.931,660.141 
			234.2,660.451 235.471,660.73 236.74,661.01 238.01,661.551 239.28,661.801 240.55,660.471 241.82,659.75 243.08,659.16 
			244.35,658.271 245.62,657.711 246.89,657.521 248.16,656.32 249.43,657.281 250.7,657.691 251.97,658.061 253.24,658.721 
			254.5,658.961 255.771,659.141 257.04,660.18 258.31,660.74 259.58,660.92 260.85,660.67 262.12,660.441 263.39,660.57 
			264.66,660.521 265.92,660.102 267.19,659.791 268.46,659.311 269.73,659.75 271,660.131 272.271,659.961 273.54,660.131 
			274.81,660.66 276.08,661.191 277.34,662.07 278.61,662.211 279.88,662.24 281.15,662.561 282.42,662.461 283.69,662.5 
			284.96,662.381 286.23,662.271 287.5,662.24 288.76,661.301 290.03,660.891 291.3,660.73 292.57,659.561 293.84,659.021 
			295.11,658.891 296.38,658.471 297.65,659.08 298.92,658.93 300.19,658.66 301.45,659.301 302.72,659.41 303.99,659.17 
			305.26,659.631 306.53,659.99 307.8,660.5 309.07,661.041 310.34,661.631 311.61,661.852 312.87,661.99 314.14,661.5 
			315.41,661.041 316.68,660.93 317.95,660.711 319.22,660.352 320.49,660.281 321.76,660.211 323.03,660.48 324.29,660.701 
			325.56,660.682 326.83,660.82 328.101,660.682 329.37,660.51 330.641,660.471 331.91,660.23 333.181,660.17 334.45,660.15 
			335.71,660.061 336.98,660.352 338.25,660.271 339.521,660.441 340.79,660.891 342.061,660.961 343.33,661.141 344.601,660.861 
			345.87,660.801 347.13,661.221 348.4,661.281 349.67,661.131 350.94,661.311 352.21,661.131 353.48,661.291 354.75,661.281 
			356.021,661.291 357.29,661.432 358.561,661.59 359.82,661.621 361.09,661.881 362.36,662.201 363.63,662.41 364.9,662.641 
			366.17,662.701 367.44,662.691 368.71,662.781 369.98,662.811 371.24,662.801 372.511,662.75 373.78,662.57 375.05,662.4 
			376.32,662.23 377.59,661.971 378.86,661.67 380.13,661.361 381.4,661.17 382.66,661.051 383.931,661.09 385.2,661.131 
			386.471,661.281 387.74,661.391 389.011,661.451 390.28,661.68 391.55,661.801 392.82,661.861 394.08,661.98 395.351,661.941 
			396.62,661.98 397.891,662.221 399.16,662.07 400.431,662 401.7,661.961 402.97,661.9 404.24,661.93 405.5,662.131 
			406.771,662.191 408.04,662.4 409.311,662.73 410.58,662.961 411.851,663.09 413.12,663.301 414.391,663.5 415.66,663.57 
			416.931,663.76 418.19,663.73 419.46,663.801 420.73,663.93 422,663.961 423.271,663.861 424.54,663.91 425.811,663.121 
			427.08,662.641 428.351,661.961 429.61,661.771 430.88,661.73 432.15,661.791 433.42,661.91 434.69,662.67 435.96,663.141 
			437.23,663.76 438.5,663.852 439.771,663.932 441.03,663.701 442.3,663.131 443.57,662.801 444.84,662.73 446.11,662.711 
			447.38,662.791 448.65,662.881 449.92,663.041 451.19,663.42 452.45,663.621 453.72,663.67 454.99,663.641 456.26,663.57 
			457.53,663.371 458.8,663.311 460.07,663.301 461.34,663.281 462.61,663.271 463.87,663.26 465.141,663.24 466.41,663.23 
			467.681,663.221 468.95,663.201 470.22,663.191 471.49,663.182 472.761,663.16 474.03,663.15 475.3,663.131 476.561,663.121 
			477.83,663.111 479.101,663.09 480.37,663.15 481.641,663.201 482.91,663.051 484.181,663.051 485.45,663 486.721,662.891 
			487.98,662.73 489.25,662.48 490.521,662.021 491.79,661.98 493.061,661.781 494.33,661.711 495.601,661.801 496.87,661.82 
			498.141,661.602 499.4,661.49 500.67,661.451 501.94,661.5 503.21,661.48 504.48,661.311 505.75,661.15 507.021,661.18 
			508.29,661.33 509.561,661.25 510.82,661.201 512.091,661.211 513.36,661.441 514.63,661.121 515.9,661.301 517.17,661.391 
			518.44,660.711 519.71,660.23 520.98,659.801 522.24,659.32 523.511,658.721 524.78,658 526.051,657.701 527.32,658.301 
			528.591,658.102 529.86,657.9 531.13,657.701 532.4,658.33 533.671,658.9 534.931,658.371 536.2,658.08 537.471,658.361 
			538.74,658.57 540.011,658.451 541.28,658.42 542.551,658.25 543.82,658.85 545.091,659.1 546.351,659.34 547.62,659.48 
			548.891,659.131 550.16,659.09 551.431,659.4 552.7,659.031 553.971,658.84 555.24,658.611 556.511,658.23 557.771,658.701 
			559.04,658.861 560.311,658.521 561.58,658.891 562.851,657.1 564.12,655.99 565.391,655.801 566.66,655.41 567.931,654.361 
			569.19,653.67 570.46,653.23 571.73,654.92 573.001,656.18 574.271,656.771 575.54,656.971 576.811,657.711 578.081,658.201 
			579.351,658.42 580.62,658.48 581.881,658.26 583.15,658.041 584.421,658.33 585.69,658.781 586.96,659.361 588.23,659.881 
			589.5,660.33 590.771,660.891 592.04,660.9 593.301,661.4 594.57,661.521 595.841,661.551 597.11,661.711 598.38,661.961 
			599.65,662.051 600.92,662.631 602.19,662.17 603.46,662.111 604.721,661.871 605.99,661.92 607.261,660.48 608.53,659.26 
			609.8,657.781 611.07,656.791 		"/>
		
			<rect x="84.79" y="567.881" clip-path="url(#SVGID_38_)" fill="none" stroke="#888483" stroke-width="1.06" stroke-linecap="round" stroke-linejoin="round" stroke-miterlimit="10" width="551.34" height="101.879"/>
	</g>
	<text transform="matrix(1 0 0 1 69.9067 94.7485)" fill="#13110C" font-family="'Helvetica'" font-size="14">0</text>
	<text transform="matrix(1 0 0 1 62.1333 60.1079)" fill="#13110C" font-family="'Helvetica'" font-size="14">10</text>
	<text transform="matrix(1 0 0 1 62.1333 25.4829)" fill="#13110C" font-family="'Helvetica'" font-size="14">20</text>
	<path fill="none" stroke="#13110C" stroke-width="1.06" stroke-linejoin="round" stroke-miterlimit="10" d="M80.53,89.72h4.26
		 M80.53,55.09h4.26 M80.53,20.451h4.26"/>
	<text transform="matrix(1 0 0 1 69.9067 228.5063)" fill="#13110C" font-family="'Helvetica'" font-size="14">0</text>
	<text transform="matrix(1 0 0 1 62.1333 200.0063)" fill="#13110C" font-family="'Helvetica'" font-size="14">20</text>
	<text transform="matrix(1 0 0 1 62.1333 171.5063)" fill="#13110C" font-family="'Helvetica'" font-size="14">40</text>
	<text transform="matrix(1 0 0 1 62.1333 143.0063)" fill="#13110C" font-family="'Helvetica'" font-size="14">60</text>
	<path fill="none" stroke="#13110C" stroke-width="1.06" stroke-linejoin="round" stroke-miterlimit="10" d="M80.53,223.48h4.26
		 M80.53,194.98h4.26 M80.53,166.491h4.26 M80.53,137.991h4.26"/>
	<text transform="matrix(1 0 0 1 69.9067 341.186)" fill="#13110C" font-family="'Helvetica'" font-size="14">0</text>
	<text transform="matrix(1 0 0 1 69.9067 305.5142)" fill="#13110C" font-family="'Helvetica'" font-size="14">5</text>
	<text transform="matrix(1 0 0 1 62.1333 269.8579)" fill="#13110C" font-family="'Helvetica'" font-size="14">10</text>
	<path fill="none" stroke="#13110C" stroke-width="1.06" stroke-linejoin="round" stroke-miterlimit="10" d="M80.53,336.161h4.26
		 M80.53,300.5h4.26 M80.53,264.831h4.26"/>
	<text transform="matrix(1 0 0 1 53.9458 444.3965)" fill="#13110C" font-family="'Helvetica'" font-size="14">60</text>
	<text transform="matrix(1 0 0 1 53.9458 417.4043)" fill="#13110C" font-family="'Helvetica'" font-size="14">50</text>
	<text transform="matrix(1 0 0 1 53.9458 390.4277)" fill="#13110C" font-family="'Helvetica'" font-size="14">40</text>
	<text transform="matrix(1 0 0 1 53.9458 363.4512)" fill="#13110C" font-family="'Helvetica'" font-size="14">30</text>
	<path fill="none" stroke="#13110C" stroke-width="1.06" stroke-linejoin="round" stroke-miterlimit="10" d="M80.53,439.371h4.26
		 M80.53,412.391h4.26 M80.53,385.41h4.26 M80.53,358.43h4.26"/>
	<text transform="matrix(1 0 0 1 46.1724 559.8418)" fill="#13110C" font-family="'Helvetica'" font-size="14">400</text>
	<text transform="matrix(1 0 0 1 69.9067 535.1152)" fill="#13110C" font-family="'Helvetica'" font-size="14">0</text>
	<text transform="matrix(1 0 0 1 54.3521 510.3887)" fill="#13110C" font-family="'Helvetica'" font-size="14">400</text>
	<text transform="matrix(1 0 0 1 54.3521 485.6621)" fill="#13110C" font-family="'Helvetica'" font-size="14">800</text>
	<path fill="none" stroke="#13110C" stroke-width="1.06" stroke-linejoin="round" stroke-miterlimit="10" d="M80.53,554.82h4.26
		 M80.53,530.102h4.26 M80.53,505.371h4.26 M80.53,480.641h4.26"/>
	<text transform="matrix(1 0 0 1 69.9067 673.9746)" fill="#13110C" font-family="'Helvetica'" font-size="14">0</text>
	<text transform="matrix(1 0 0 1 62.1333 655.1152)" fill="#13110C" font-family="'Helvetica'" font-size="14">10</text>
	<text transform="matrix(1 0 0 1 62.1333 636.2559)" fill="#13110C" font-family="'Helvetica'" font-size="14">20</text>
	<text transform="matrix(1 0 0 1 62.1333 617.4043)" fill="#13110C" font-family="'Helvetica'" font-size="14">30</text>
	<text transform="matrix(1 0 0 1 62.1333 598.5371)" fill="#13110C" font-family="'Helvetica'" font-size="14">40</text>
	<text transform="matrix(1 0 0 1 62.1333 579.6777)" fill="#13110C" font-family="'Helvetica'" font-size="14">50</text>
	<path fill="none" stroke="#13110C" stroke-width="1.06" stroke-linejoin="round" stroke-miterlimit="10" d="M80.53,668.951h4.26
		 M80.53,650.09h4.26 M80.53,631.23h4.26 M80.53,612.371h4.26 M80.53,593.51h4.26 M80.53,574.65h4.26 M109.85,674.01v-4.25
		 M226.59,674.01v-4.25 M343.33,674.01v-4.25 M457.53,674.01v-4.25 M573,674.01v-4.25"/>
	<text transform="matrix(1 0 0 1 83.3911 686.8965)" fill="#13110C" font-family="'Helvetica'" font-size="14">J</text>
	<text transform="matrix(1 0 0 1 90.1099 686.8965)" fill="#13110C" font-family="'Helvetica'" font-size="14">ul 2012</text>
	<text transform="matrix(1 0 0 1 198.1802 686.8965)" fill="#13110C" font-family="'Helvetica'" font-size="14">Oct 2012</text>
	<text transform="matrix(1 0 0 1 314.5239 686.8965)" fill="#13110C" font-family="'Helvetica'" font-size="14">J</text>
	<text transform="matrix(1 0 0 1 321.2505 686.8965)" fill="#13110C" font-family="'Helvetica'" font-size="14">an 2013</text>
	<text transform="matrix(1 0 0 1 429.1172 686.8965)" fill="#13110C" font-family="'Helvetica'" font-size="14">Apr 2013</text>
	<text transform="matrix(1 0 0 1 546.5391 686.8965)" fill="#13110C" font-family="'Helvetica'" font-size="14">J</text>
	<text transform="matrix(1 0 0 1 553.2578 686.8965)" fill="#13110C" font-family="'Helvetica'" font-size="14">ul 2013</text>
	<text transform="matrix(1 0 0 1 308.938 703.4199)" fill="#13110C" font-family="'Helvetica'" font-size="18">sample_date</text>
	<text transform="matrix(0 -1 1 0 37.6567 90.8735)" fill="#13110C" font-family="'Helvetica'" font-size="18">T (</text>
	<text transform="matrix(0 -1 1 0 28.7036 68.8579)" fill="#13110C" font-family="'Helvetica'" font-size="13">o</text>
	<text transform="matrix(0 -1 1 0 37.6567 61.6548)" fill="#13110C" font-family="'Helvetica'" font-size="18">C)</text>
	<text transform="matrix(0 -1 1 0 38.6724 230.8579)" fill="#13110C" font-family="'Helvetica'" font-size="18">P (mm day</text>
	<text transform="matrix(0 -1 1 0 29.7114 143.8501)" fill="#13110C" font-family="'Symbol'" font-size="13"></text>
	<text transform="matrix(0 -1 1 0 29.7114 136.7017)" fill="#13110C" font-family="'Helvetica'" font-size="13">1</text>
	<text transform="matrix(0 -1 1 0 38.6724 129.4829)" fill="#13110C" font-family="'Helvetica'" font-size="18">)</text>
	<text transform="matrix(0 -1 1 0 38.6724 342.2642)" fill="#13110C" font-family="'Helvetica'" font-size="18">Q (mm da</text>
	<text transform="matrix(0 -1 1 0 38.6724 262.2563)" fill="#13110C" font-family="'Helvetica'" font-size="18">y</text>
	<text transform="matrix(0 -1 1 0 29.7114 253.2642)" fill="#13110C" font-family="'Symbol'" font-size="13"></text>
	<text transform="matrix(0 -1 1 0 29.7114 246.1157)" fill="#13110C" font-family="'Helvetica'" font-size="13">1</text>
	<text transform="matrix(0 -1 1 0 38.6724 238.8892)" fill="#13110C" font-family="'Helvetica'" font-size="18">)</text>
	<text transform="matrix(0 -1 1 0 38.7349 434.3809)" fill="#13110C" font-family="'Symbol'" font-size="18"></text>
	<text transform="matrix(0 -1 1 0 29.7817 425.4902)" fill="#13110C" font-family="'Helvetica'" font-size="13">2</text>
	<text transform="matrix(0 -1 1 0 38.7349 418.2715)" fill="#13110C" font-family="'Helvetica'" font-size="18">H (</text>
	<text transform="matrix(0 -1 1 0 29.7817 394.2793)" fill="#13110C" font-family="'Helvetica'" font-size="13">o</text>
	<text transform="matrix(0 -1 1 0 38.7349 387.0527)" fill="#13110C" font-family="'Helvetica'" font-size="18">/</text>
	<text transform="matrix(0 -1 1 0 42.0161 382.0527)" fill="#13110C" font-family="'Helvetica'" font-size="13">o</text>
	<text transform="matrix(0 -1 1 0 42.0161 374.8184)" fill="#13110C" font-family="'Helvetica'" font-size="13">o</text>
	<text transform="matrix(0 -1 1 0 38.7349 367.584)" fill="#13110C" font-family="'Helvetica'" font-size="18">)</text>
	<text transform="matrix(0 -1 1 0 19.2349 566.5996)" fill="#13110C" font-family="'Helvetica'" font-size="18">   Alkalinity</text>
	<text transform="matrix(0 -1 1 0 42.6724 554.5996)" fill="#13110C" font-family="'Helvetica'" font-size="18">(meq</text>
	<text transform="matrix(0 -1 1 0 42.6724 510.5762)" fill="#13110C" font-family="'Helvetica'" font-size="18">L</text>
	<text transform="matrix(0 -1 1 0 33.7114 500.5684)" fill="#13110C" font-family="'Symbol'" font-size="13"></text>
	<text transform="matrix(0 -1 1 0 33.7114 493.4199)" fill="#13110C" font-family="'Helvetica'" font-size="13">1</text>
	<text transform="matrix(0 -1 1 0 42.6724 486.2012)" fill="#13110C" font-family="'Helvetica'" font-size="18">)</text>
	<text transform="matrix(0 -1 1 0 19.1724 661.498)" fill="#13110C" font-family="'Helvetica'" font-size="18">   DOC</text>
	<text transform="matrix(0 -1 1 0 38.7271 657.5039)" fill="#13110C" font-family="'Helvetica'" font-size="18">(mg</text>
	<text transform="matrix(0 -1 1 0 38.7271 622.4883)" fill="#13110C" font-family="'Helvetica'" font-size="18">L</text>
	<text transform="matrix(0 -1 1 0 29.7817 612.4805)" fill="#13110C" font-family="'Symbol'" font-size="13"></text>
	<text transform="matrix(0 -1 1 0 29.7817 605.3398)" fill="#13110C" font-family="'Helvetica'" font-size="13">1</text>
	<text transform="matrix(0 -1 1 0 38.7271 598.1289)" fill="#13110C" font-family="'Helvetica'" font-size="18">)</text>
	<text transform="matrix(1 0 0 1 104.0083 469.6777)" fill="#13110C" font-family="'Helvetica'" font-size="14">e.</text>
	<g>
		<defs>
			<rect id="SVGID_39_" x="84.791" y="567.87" width="551.339" height="101.891"/>
		</defs>
		<clipPath id="SVGID_40_">
			<use xlink:href="#SVGID_39_"  overflow="visible"/>
		</clipPath>
		<g clip-path="url(#SVGID_40_)">
			<text transform="matrix(1 0 0 1 105.9619 577.5332)" fill="#13110C" font-family="'Helvetica'" font-size="14">f</text>
		</g>
	</g>
	<text transform="matrix(1 0 0 1 109.4307 577.5332)" fill="#13110C" font-family="'Helvetica'" font-size="14">.</text>
</g>
</svg>
